<?xml version="1.0" standalone="no"?>
<!DOCTYPE svg PUBLIC "-//W3C//DTD SVG 20010904//EN"
 "http://www.w3.org/TR/2001/REC-SVG-20010904/DTD/svg10.dtd">
<svg version="1.0" xmlns="http://www.w3.org/2000/svg"
 width="1960.000000pt" height="1960.000000pt" viewBox="0 0 1960.000000 1960.000000"
 preserveAspectRatio="xMidYMid meet">
<metadata>
Created by potrace 1.11, written by Peter Selinger 2001-2013
</metadata>
<g transform="translate(0.000000,1960.000000) scale(0.100000,-0.100000)"
fill="#000000" stroke="none">
<path d="M16182 13143 c-17 -43 -175 -454 -352 -913 -177 -459 -366 -950 -420
-1090 -54 -140 -243 -631 -420 -1090 -177 -459 -366 -950 -420 -1090 -54 -140
-243 -631 -420 -1090 -177 -459 -378 -981 -447 -1160 -69 -179 -127 -331 -130
-338 -4 -10 61 -12 322 -10 l327 3 54 140 c30 77 83 214 118 305 35 91 218
563 406 1050 188 487 368 953 400 1035 32 83 239 618 460 1190 221 572 428
1108 460 1190 32 83 212 548 400 1035 188 487 345 891 347 898 4 9 -65 12
-325 12 l-330 0 -30 -77z"/>
<path d="M0 9915 l0 -3205 1778 2 1777 3 3 353 2 352 -1365 0 -1365 0 0 2850
0 2850 -415 0 -415 0 0 -3205z"/>
<path d="M5855 11405 c-144 -18 -213 -32 -344 -70 -595 -174 -1061 -608 -1320
-1228 -201 -484 -269 -1082 -185 -1632 130 -853 627 -1470 1385 -1719 266 -87
446 -116 777 -123 567 -12 1043 64 1490 238 78 31 102 45 102 59 0 24 -127
580 -134 587 -3 3 -65 -17 -139 -45 -205 -78 -385 -123 -642 -159 -92 -13
-194 -17 -435 -17 -305 -1 -319 0 -441 26 -324 70 -560 191 -753 386 -261 263
-397 601 -431 1070 l-5 82 1609 0 1609 0 6 43 c65 450 0 966 -176 1394 -231
562 -643 929 -1198 1067 -217 53 -539 71 -775 41z m473 -619 c231 -50 404
-144 551 -302 195 -208 312 -525 337 -906 l7 -108 -1217 0 -1217 0 6 38 c63
389 212 715 434 945 199 206 415 314 701 351 70 9 327 -3 398 -18z"/>
<path d="M10745 11409 c-199 -24 -325 -50 -485 -101 -470 -149 -861 -445
-1137 -862 -472 -712 -535 -1836 -148 -2641 276 -573 777 -978 1396 -1129 199
-48 315 -61 564 -60 186 1 256 5 365 23 246 39 451 103 665 205 228 110 387
219 564 391 477 462 711 1112 688 1910 -10 343 -56 598 -159 880 -258 708
-816 1192 -1553 1346 -214 45 -560 62 -760 38z m445 -640 c247 -36 473 -151
655 -334 118 -118 202 -238 286 -410 149 -305 219 -624 219 -998 0 -379 -69
-696 -215 -986 -203 -406 -516 -667 -904 -757 -146 -34 -358 -36 -511 -4 -598
123 -1017 657 -1121 1430 -18 135 -15 476 5 630 103 769 504 1292 1082 1415
144 31 347 36 504 14z"/>
<path d="M17107 9603 c-4 -3 -7 -145 -7 -315 l0 -308 1175 0 1175 0 -2 313 -3
312 -1166 3 c-641 1 -1169 -1 -1172 -5z"/>
</g>
</svg>
