<?xml version="1.0" encoding="utf-8"?>
<!-- Generator: Adobe Illustrator 21.0.0, SVG Export Plug-In . SVG Version: 6.00 Build 0)  -->
<svg version="1.1" id="Layer_1" xmlns="http://www.w3.org/2000/svg" xmlns:xlink="http://www.w3.org/1999/xlink" x="0px" y="0px" width="245" height="86"
	 viewBox="0 0 245 86" enable-background="new 0 0 245 86" xml:space="preserve">
<g>
	<path d="M0,1.6h10.3v71.2h34.1v8.7H0V1.6z"/>
	<path d="M59.7,54.6C60,68.7,69,74.5,79.4,74.5c7.5,0,12-1.3,15.9-3L97,79c-3.7,1.7-10,3.6-19.1,3.6
		c-17.7,0-28.2-11.6-28.2-28.9c0-17.3,10.2-30.9,26.9-30.9c18.7,0,23.7,16.5,23.7,27c0,2.1-0.2,3.8-0.4,4.9H59.7z M90.3,47.2
		c0.1-6.6-2.7-16.9-14.5-16.9c-10.5,0-15.2,9.7-16,16.9H90.3z"/>
	<path d="M165.2,52.3c0,21.2-14.7,30.5-28.6,30.5c-15.5,0-27.5-11.4-27.5-29.5c0-19.2,12.6-30.5,28.4-30.5
		C154,22.8,165.2,34.7,165.2,52.3z M119.7,52.9c0,12.6,7.2,22,17.4,22c10,0,17.4-9.4,17.4-22.3c0-9.7-4.9-22-17.2-22
		S119.7,42,119.7,52.9z"/>
	<path d="M169.6,86.2l33.1-85.9h8.1l-33.2,85.9H169.6z"/>
	<path d="M243.1,45.5v7.7h-29.3v-7.7H243.1z"/>
</g>
</svg>
