<?xml version="1.0" encoding="utf-8"?>
<!-- Generator: Adobe Illustrator 21.0.0, SVG Export Plug-In . SVG Version: 6.00 Build 0)  -->
<svg version="1.1" id="Layer_1" width="134" height="154" xmlns="http://www.w3.org/2000/svg" xmlns:xlink="http://www.w3.org/1999/xlink" x="0px" y="0px"
	 viewBox="0 0 134 154" enable-background="new 0 0 134 154" xml:space="preserve">
<g>
	<path fill="#6598E6" d="M66.3,103.6c-2.7,0-4.8,2.2-4.8,4.8c0,2.7,2.2,4.8,4.8,4.8l0,0c2.7,0,4.8-2.2,4.8-4.8S69,103.6,66.3,103.6z
		 M68.8,109.9c0,0.6-0.5,1.2-1.2,1.2h-2.3c-0.6,0-1.2-0.5-1.2-1.2v-2.5c0-0.6,0.5-1.2,1.1-1.2c0,0,0,0,0,0v0h2.3
		c0.6,0,1.2,0.5,1.2,1.2V109.9z"/>
	<path fill="#6598E6" d="M58.3,43.4C58.3,43.4,58.4,43.4,58.3,43.4h16c0.5,0,1-0.4,1-1s-0.4-1-1-1v0H58.4c-0.5,0-1,0.4-1,0.9
		C57.4,43,57.8,43.4,58.3,43.4z"/>
	<polygon fill="#6598E6" points="43.4,45.7 43.4,101.6 89.1,101.6 89.1,45.7 89.1,45.7 	"/>
	<path fill="#6598E6" d="M134,41c0-2.1-1.2-4-3-5L70,1c-2.5-1.3-5.5-1.3-8,0C62,1,4.5,34.4,2,36s-2,5-2,5v72c0,3.3,2,4,2,4l60,36
		c2.5,1.3,5.5,1.3,8,0c0,0,59.7-34.4,62-36c1.4-0.9,2.1-2.4,2-4C134,113,134.1,43,134,41z M93,45.3v63.6c0,3.3-2.7,6.1-6.1,6.1
		c0,0,0,0,0,0H46.1c-3.3,0-6.1-2.7-6.1-6.1c0,0,0,0,0,0V45.3c0-3.3,2.7-6.1,6.1-6.1H87C90.3,39.3,93,42,93,45.3
		C93,45.3,93,45.3,93,45.3z"/>
</g>
</svg>
