<?xml version="1.0" encoding="utf-8"?>
<!-- Generator: Adobe Illustrator 21.0.0, SVG Export Plug-In . SVG Version: 6.00 Build 0)  -->
<svg version="1.1" id="Layer_1" xmlns="http://www.w3.org/2000/svg" xmlns:xlink="http://www.w3.org/1999/xlink" x="0px" y="0px"
	 viewBox="0 0 134.1 154" enable-background="new 0 0 134.1 154" xml:space="preserve">
<path fill="#FDCF0A" d="M134,41c0-2.1-1.2-4-3-5L70,1c-2.5-1.3-5.5-1.3-8,0C62,1,4.5,34.4,2,36s-2,5-2,5v72c0,3.3,2,4,2,4l60,36
	c2.5,1.3,5.5,1.3,8,0c0,0,59.7-34.4,62-36c1.4-0.9,2.1-2.4,2-4C134,113,134.1,43,134,41z M54.7,115C54.7,115,54.6,115,54.7,115
	c-1.8,0-3.5-0.6-4.7-1.9c-1.2-1.2-1.9-2.9-1.9-4.6c0-1.7,0.7-3.4,1.9-4.6c1.2-1.3,2.9-2,4.7-1.9c1.7,0,3.4,0.7,4.6,1.9
	c1.2,1.2,1.9,2.9,1.9,4.6C61.1,112.1,58.2,115,54.7,115z M77.3,115C77.3,115,77.3,115,77.3,115c-1.8,0-3.5-0.6-4.7-1.9
	c-1.2-1.2-1.9-2.9-1.9-4.6c0-1.7,0.7-3.4,1.9-4.6c1.2-1.3,2.9-2,4.7-1.9c1.7,0,3.4,0.7,4.6,1.9c1.2,1.2,1.9,2.9,1.9,4.6h0
	C83.8,112.1,80.9,115,77.3,115z M101.7,51.3L101.7,51.3c-0.7,1.6-1.6,3.6-2.6,6.2c-1,2.6-2.1,5.4-3.2,8.3s-2.3,6-3.4,9.1
	s-2.1,5.8-3,8.3s-1.9,5.3-3.1,8.4c-0.4,1-1,2-1.6,2.9c-0.6,0.9-1.6,1.4-2.7,1.3H50.9c-1.1,0-2.2-0.5-2.8-1.4
	c-0.7-0.9-1.2-1.8-1.5-2.9l-7.3-27.3c-0.3-1-0.2-2.1,0.3-3.1c0.5-0.8,1.8-1.3,4-1.3h46l5.4-11.7c0.4-1,1.2-1.8,2.3-2.1
	c0.9-0.2,1.9-0.2,2.7,0.2c0.8,0.4,1.5,1.1,1.9,1.9C102.3,49.2,102.2,50.4,101.7,51.3z"/>
</svg>
