<?xml version="1.0" encoding="utf-8"?>
<!-- Generator: Adobe Illustrator 21.0.0, SVG Export Plug-In . SVG Version: 6.00 Build 0)  -->
<svg version="1.1" id="Layer_1" width="50px" height="50px" xmlns="http://www.w3.org/2000/svg" xmlns:xlink="http://www.w3.org/1999/xlink" x="0px" y="0px"
	 viewBox="0 0 49.1 49.1" enable-background="new 0 0 49.1 49.1" xml:space="preserve">
<g>
	<polygon fill="#FFFFFF" points="19.3,33.6 33.2,24.4 19.3,15.1 	"/>
	<path fill="#FFFFFF" d="M24.5,0C11,0,0,11,0,24.5c0,0,0,0,0,0c0,13.6,11,24.5,24.6,24.5c13.6,0,24.5-11,24.5-24.6
		C49.1,11,38.1,0,24.5,0z M24.6,45.4C13,45.4,3.5,36,3.5,24.4C3.5,12.7,13,3.3,24.6,3.3c0,0,0,0,0,0v0c11.6,0,21.1,9.4,21.1,21.1
		C45.7,36,36.3,45.4,24.6,45.4z"/>
</g>
</svg>
