<?xml version="1.0" encoding="utf-8"?>
<!-- Generator: Adobe Illustrator 21.0.0, SVG Export Plug-In . SVG Version: 6.00 Build 0)  -->
<svg version="1.1" id="Layer_1" xmlns="http://www.w3.org/2000/svg" xmlns:xlink="http://www.w3.org/1999/xlink" x="0px" y="0px"
	 viewBox="0 0 49.1 49.1" enable-background="new 0 0 49.1 49.1" xml:space="preserve">
<g>
	<polygon fill="#FFFFFF" points="29.8,33.6 29.8,15.1 15.9,24.4 	"/>
	<path fill="#FFFFFF" d="M24.6,0C24.6,0,24.6,0,24.6,0C11,0,0,11,0,24.5s11,24.5,24.6,24.5c13.6,0,24.5-11,24.5-24.5
		C49.1,11,38.1,0,24.6,0z M24.5,45.4C12.8,45.4,3.4,36,3.4,24.4c0-11.6,9.4-21.1,21.1-21.1v0c11.6,0,21.1,9.4,21.1,21.1
		C45.6,36,36.1,45.4,24.5,45.4z"/>
</g>
</svg>
