<?xml version="1.0" encoding="utf-8"?>
<!-- Generator: Adobe Illustrator 21.0.0, SVG Export Plug-In . SVG Version: 6.00 Build 0)  -->
<svg version="1.1" id="Layer_1" xmlns="http://www.w3.org/2000/svg" xmlns:xlink="http://www.w3.org/1999/xlink" x="0px" y="0px"
	 viewBox="0 0 18 18" enable-background="new 0 0 18 18" xml:space="preserve">
<path fill="#E67624" d="M9,0C4,0,0,4,0,9s4,9,9,9s9-4,9-9S14,0,9,0L9,0z M13.7,8.3l-4.1,4.1c-0.8,0.8-1.9,1-2.4,0.4c0,0,0,0,0,0
	c-0.1-0.1-0.2-0.1-0.3-0.2l-2.5-2.5c-0.5-0.5-0.5-1.2,0-1.7c0.5-0.5,1.2-0.5,1.7,0l1.8,1.8l3.8-3.8c0.3-0.7,1.2-1.1,2-0.8
	c0.7,0.3,1.1,1.2,0.8,2C14.3,7.9,14,8.2,13.7,8.3z"/>
</svg>
