<?xml version="1.0" encoding="utf-8"?>
<!-- Generator: Adobe Illustrator 21.0.0, SVG Export Plug-In . SVG Version: 6.00 Build 0)  -->
<svg version="1.1" id="Layer_1" xmlns="http://www.w3.org/2000/svg" xmlns:xlink="http://www.w3.org/1999/xlink" x="0px" y="0px"
	 viewBox="0 0 134.1 154" enable-background="new 0 0 134.1 154" xml:space="preserve">
<path fill="#12B367" d="M2,117c0,0-2-0.7-2-4V41c0,0-0.4-3.4,2-5C4.5,34.4,62,1,62,1c2.5-1.3,5.5-1.3,8,0l61,35c1.8,1,3,2.9,3,5
	c0,2,0,72,0,72c0.1,1.6-0.6,3.1-2,4c-2.3,1.6-62,36-62,36c-2.5,1.3-5.5,1.3-8,0L2,117z M65,35c-24.3,0-44,19.7-44,44s19.7,44,44,44
	c24.3,0,44-19.7,44-44c0,0,0,0,0,0C109,54.7,89.3,35,65,35L65,35z M65,39.5c15.1,0,28.9,8.7,35.5,22.3v0.1c0,0.5,0.1,0.9,0.1,1.4
	c0.4,0.4,0.8,0.8,1.1,1.2c0.9,2.3,1.6,4.7,2,7.1c-0.5,0.4-1.1,0.6-1.7,0.6c-4.1-3.2-0.1,3.5,2.2,2.3c0.2,1.5,0.3,3,0.3,4.5
	c0,9.4-3.4,18.4-9.5,25.5c0-0.4,0.1-0.7,0.2-1c2.7-3.3,2.2-9.9-3.4-9.2c-2.9,2.3-6.9,5.2-10.5,1.8c-3.7-3.3-2-8.8,0.1-12.5
	c2.1-3,2.7-7.4,6.4-8.9c3.6,0.8,8,0.6,9.3-3.8c1.1-2,0.5-2.6-0.6-3.1c-0.1,0-0.2,0-0.2-0.1c-1.2-0.5-2.7-0.9-2.9-2.6
	c1.1-1.8-1.2-5.6-2.1-2.2c1.9,2.1,2.3,8.4-2.2,6.1c1.6,2.5-5.7,0.9-4.3,4.5c1.2,3.9-6.6,6.1-4.4,1.1c1.3-3.6-0.6-9.1,2.6-11.4
	c0-0.1,0.3-0.6,0.2-0.1c0.1-0.1,0.2-0.2,0.3-0.2c2.8-1.9-3.6-7.7-3.2-4.2c2.8,1.4,1.2,4.3-1.4,2.9c-2.8-1.4-3.8-9.1,0.1-8.5
	c2.9,0.4,0.1-2.7-1.2-4.2c-0.1,0.7-0.3-0.1-0.2-0.2c-0.1-0.1-0.2-0.2-0.3-0.2c0.4-4.6-7.3-0.6-8.6-4.7C64,41.1,58.4,41,53,41.3
	c2.1-0.6,4.2-1.1,6.4-1.4l0.6-0.1c0.6-0.1,1.2-0.1,1.8-0.2C62.9,39.6,63.9,39.5,65,39.5L65,39.5L65,39.5z M48.5,44.8
	c5.5,1.8-2.8,7.7,1.4,10c0.4,0,0.8,0.1,1.1,0.2c0.1-0.1,0.2-0.1,0.2,0.1c1.9,0.9,2.3,3.5-0.8,3.3c-4.2-1.2-5.9,7.8-1.8,6.7
	c1.5-4.3,6.1-2.5,6.9,1.3c2.5,3.8-2.6,3.8-4.3,5.4c1.7,3.1-3.1,1.5-4.9,3c-3.4,0.8-4.5,6-7.5,6.1c-0.1-5.5-9.3-3.6-7.8,1.3
	c1.9,1.5,4.5,3.1,4.2,6.3c-0.2,6.8,8.2,4.6,11.9,8.1c4.6,2,7.5,6.1,11.5,8.8c3.5-1.2,9.9,2.1,6.5,6.3c-2.1,1.6-4.5,2.8-6.9,3.8v0.1
	c-1.5,0.5-3.1,0.9-4.7,1c-3-0.9-6-2.3-8.7-3.9c0,0,0,0,0-0.1c-1.2-3.6-4.5-5.8-6.8-8.7c-1-1-1.5-2.5-1.3-3.9c0,0,0-0.1,0-0.1
	c0.2-2.3,1-4.7-0.7-6.8c-2.6-4.4-5.9-8.3-7.6-13.2c-0.2-5-0.5-9.8,1.2-14.5C33.3,58,42.5,49.9,48.5,44.8L48.5,44.8L48.5,44.8z
	 M60.3,50.9c0.2,0,0.3,0,0.5,0.1c1,0,0.6,1.1,0,1.4c-2.3,2.1-2.8-1-1-1.4C59.9,50.9,60.1,50.9,60.3,50.9L60.3,50.9z M63.3,51.6
	c1.7-0.4,3.4,0.7,3.8,2.4c1.1,4.6-3.4,7.5-5.1,11.3c-4.2-1.2,0.2-5.8-1.6-8.1C57.9,54.6,60.6,52,63.3,51.6L63.3,51.6z M55.1,56.2
	c2.7-0.2,2.2,5.7-0.1,6.6c-1.9-1.8,0.6-4.4-0.5-6.5C54.8,56.3,54.9,56.2,55.1,56.2L55.1,56.2L55.1,56.2z M78,65.6
	c0.9,0,2.8,0.8,2.6,2.1c-0.8,1.4-3.2,1.3-2.3-0.8C77.4,66,77.5,65.6,78,65.6L78,65.6L78,65.6z M55.1,71.7c1-0.2,3.3,0.6,1.2,1.8
	c0.7-0.7-0.5-0.4-0.7-0.4C54.3,72.2,54.4,71.8,55.1,71.7L55.1,71.7L55.1,71.7z M46.7,74.9c0.3,0-0.1,0.4-0.5,0.3h-0.1
	c-0.1,0-0.1-0.1-0.2-0.2C46.2,75,46.4,74.9,46.7,74.9L46.7,74.9z M38.5,86c0.2,0,0.4,0,0.6,0c0.2,0,0.5,0.1,0.7,0.2c0,0,0,0.1,0,0.1
	c0.9,0.1,1.5,1,1.3,1.9c0,0.1,0,0.1,0,0.2c-0.7,0.2-1.4-0.1-1.8-0.7C38,86.7,38,86.2,38.5,86L38.5,86L38.5,86z"/>
</svg>
