<?xml version="1.0" encoding="utf-8"?>
<!-- Generator: Adobe Illustrator 21.0.0, SVG Export Plug-In . SVG Version: 6.00 Build 0)  -->
<svg version="1.1" id="Layer_1" xmlns="http://www.w3.org/2000/svg" xmlns:xlink="http://www.w3.org/1999/xlink" x="0px" y="0px"
	 viewBox="0 0 134.1 154" enable-background="new 0 0 134.1 154" xml:space="preserve">
<g>
	<path fill="#E67624" d="M134,41c0-2.1-1.2-4-3-5L70,1c-2.5-1.3-5.5-1.3-8,0C62,1,4.5,34.4,2,36s-2,5-2,5v72c0,3.3,2,4,2,4l60,36
		c2.5,1.3,5.5,1.3,8,0c0,0,59.7-34.4,62-36c1.4-0.9,2.1-2.4,2-4C134,113,134.1,43,134,41z M97.4,108.4
		C97.4,108.4,97.4,108.4,97.4,108.4l-2.1,2.1c-2.1,2.1-5.5,2.1-7.7,0c0,0,0,0,0,0L74.4,97.2c-14.5,9.1-33.6,4.6-42.6-9.8
		s-4.6-33.6,9.8-42.6c14.5-9.1,33.6-4.6,42.6,9.8c6.3,10.1,6.3,22.8-0.1,32.9l13.2,13.2C99.6,102.8,99.6,106.2,97.4,108.4z"/>
	<path fill="#E67624" d="M58,48.6C58,48.6,58,48.6,58,48.6L58,48.6c-12.4,0-22.4,10-22.4,22.4c0,12.4,10,22.4,22.4,22.4
		c12.4,0,22.4-10,22.4-22.4C80.4,58.6,70.4,48.6,58,48.6z"/>
</g>
</svg>
