<svg xmlns="http://www.w3.org/2000/svg" viewBox="0 0 134.1 154"><path fill="#FDCF0A" d="M134 41c0-2.1-1.2-4-3-5L70 1c-2.5-1.3-5.5-1.3-8 0C62 1 4.5 34.4 2 36s-2 5-2 5v72c0 3.3 2 4 2 4l60 36c2.5 1.3 5.5 1.3 8 0 0 0 59.7-34.4 62-36 1.4-.9 2.1-2.4 2-4 0 0 .1-70 0-72zm-79.3 74s-.1 0 0 0c-1.8 0-3.5-.6-4.7-1.9-1.2-1.2-1.9-2.9-1.9-4.6 0-1.7.7-3.4 1.9-4.6 1.2-1.3 2.9-2 4.7-1.9 1.7 0 3.4.7 4.6 1.9 1.2 1.2 1.9 2.9 1.9 4.6-.1 3.6-3 6.5-6.5 6.5zm22.6 0c-1.8 0-3.5-.6-4.7-1.9-1.2-1.2-1.9-2.9-1.9-4.6 0-1.7.7-3.4 1.9-4.6 1.2-1.3 2.9-2 4.7-1.9 1.7 0 3.4.7 4.6 1.9 1.2 1.2 1.9 2.9 1.9 4.6 0 3.6-2.9 6.5-6.5 6.5zm24.4-63.7c-.7 1.6-1.6 3.6-2.6 6.2s-2.1 5.4-3.2 8.3-2.3 6-3.4 9.1-2.1 5.8-3 8.3-1.9 5.3-3.1 8.4c-.4 1-1 2-1.6 2.9-.6.9-1.6 1.4-2.7 1.3H50.9c-1.1 0-2.2-.5-2.8-1.4-.7-.9-1.2-1.8-1.5-2.9l-7.3-27.3c-.3-1-.2-2.1.3-3.1.5-.8 1.8-1.3 4-1.3h46L95 48.1c.4-1 1.2-1.8 2.3-2.1.9-.2 1.9-.2 2.7.2.8.4 1.5 1.1 1.9 1.9.4 1.1.3 2.3-.2 3.2z"/></svg>