<svg xmlns="http://www.w3.org/2000/svg" viewBox="0 0 134.1 154"><path fill="#12B367" d="M2 117s-2-.7-2-4V41s-.4-3.4 2-5C4.5 34.4 62 1 62 1c2.5-1.3 5.5-1.3 8 0l61 35c1.8 1 3 2.9 3 5v72c.1 1.6-.6 3.1-2 4-2.3 1.6-62 36-62 36-2.5 1.3-5.5 1.3-8 0L2 117zm63-82c-24.3 0-44 19.7-44 44s19.7 44 44 44 44-19.7 44-44-19.7-44-44-44zm0 4.5c15.1 0 28.9 8.7 35.5 22.3v.1c0 .5.1.9.1 1.4.4.4.8.8 1.1 1.2.9 2.3 1.6 4.7 2 7.1-.5.4-1.1.6-1.7.6-4.1-3.2-.1 3.5 2.2 2.3.2 1.5.3 3 .3 4.5 0 9.4-3.4 18.4-9.5 25.5 0-.4.1-.7.2-1 2.7-3.3 2.2-9.9-3.4-9.2-2.9 2.3-6.9 5.2-10.5 1.8-3.7-3.3-2-8.8.1-12.5 2.1-3 2.7-7.4 6.4-8.9 3.6.8 8 .6 9.3-3.8 1.1-2 .5-2.6-.6-3.1-.1 0-.2 0-.2-.1-1.2-.5-2.7-.9-2.9-2.6 1.1-1.8-1.2-5.6-2.1-2.2 1.9 2.1 2.3 8.4-2.2 6.1 1.6 2.5-5.7.9-4.3 4.5 1.2 3.9-6.6 6.1-4.4 1.1 1.3-3.6-.6-9.1 2.6-11.4 0-.1.3-.6.2-.1.1-.1.2-.2.3-.2 2.8-1.9-3.6-7.7-3.2-4.2 2.8 1.4 1.2 4.3-1.4 2.9-2.8-1.4-3.8-9.1.1-8.5 2.9.4.1-2.7-1.2-4.2-.1.7-.3-.1-.2-.2-.1-.1-.2-.2-.3-.2.4-4.6-7.3-.6-8.6-4.7C64 41.1 58.4 41 53 41.3c2.1-.6 4.2-1.1 6.4-1.4l.6-.1c.6-.1 1.2-.1 1.8-.2 1.1 0 2.1-.1 3.2-.1zm-16.5 5.3c5.5 1.8-2.8 7.7 1.4 10 .4 0 .8.1 1.1.2.1-.1.2-.1.2.1 1.9.9 2.3 3.5-.8 3.3-4.2-1.2-5.9 7.8-1.8 6.7 1.5-4.3 6.1-2.5 6.9 1.3 2.5 3.8-2.6 3.8-4.3 5.4 1.7 3.1-3.1 1.5-4.9 3-3.4.8-4.5 6-7.5 6.1-.1-5.5-9.3-3.6-7.8 1.3 1.9 1.5 4.5 3.1 4.2 6.3-.2 6.8 8.2 4.6 11.9 8.1 4.6 2 7.5 6.1 11.5 8.8 3.5-1.2 9.9 2.1 6.5 6.3-2.1 1.6-4.5 2.8-6.9 3.8v.1c-1.5.5-3.1.9-4.7 1-3-.9-6-2.3-8.7-3.9v-.1c-1.2-3.6-4.5-5.8-6.8-8.7-1-1-1.5-2.5-1.3-3.9v-.1c.2-2.3 1-4.7-.7-6.8-2.6-4.4-5.9-8.3-7.6-13.2-.2-5-.5-9.8 1.2-14.5 3.7-7.4 12.9-15.5 18.9-20.6zm11.8 6.1c.2 0 .3 0 .5.1 1 0 .6 1.1 0 1.4-2.3 2.1-2.8-1-1-1.4.1-.1.3-.1.5-.1zm3 .7c1.7-.4 3.4.7 3.8 2.4 1.1 4.6-3.4 7.5-5.1 11.3-4.2-1.2.2-5.8-1.6-8.1-2.5-2.6.2-5.2 2.9-5.6zm-8.2 4.6c2.7-.2 2.2 5.7-.1 6.6-1.9-1.8.6-4.4-.5-6.5.3 0 .4-.1.6-.1zM78 65.6c.9 0 2.8.8 2.6 2.1-.8 1.4-3.2 1.3-2.3-.8-.9-.9-.8-1.3-.3-1.3zm-22.9 6.1c1-.2 3.3.6 1.2 1.8.7-.7-.5-.4-.7-.4-1.3-.9-1.2-1.3-.5-1.4zm-8.4 3.2c.3 0-.1.4-.5.3h-.1c-.1 0-.1-.1-.2-.2.3 0 .5-.1.8-.1zM38.5 86h.6c.2 0 .5.1.7.2v.1c.9.1 1.5 1 1.3 1.9v.2c-.7.2-1.4-.1-1.8-.7-1.3-1-1.3-1.5-.8-1.7z"/></svg>