<svg width="134" height="154" xmlns="http://www.w3.org/2000/svg"><g fill="#6598E6"><path d="M66.3 103.6c-2.7 0-4.8 2.2-4.8 4.8 0 2.7 2.2 4.8 4.8 4.8 2.7 0 4.8-2.2 4.8-4.8s-2.1-4.8-4.8-4.8zm2.5 6.3c0 .6-.5 1.2-1.2 1.2h-2.3c-.6 0-1.2-.5-1.2-1.2v-2.5c0-.6.5-1.2 1.1-1.2h2.3c.6 0 1.2.5 1.2 1.2v2.5zM58.3 43.4s.1 0 0 0h16c.5 0 1-.4 1-1s-.4-1-1-1H58.4c-.5 0-1 .4-1 .9 0 .7.4 1.1.9 1.1zm-14.9 2.3v55.9h45.7V45.7z"/><path d="M134 41c0-2.1-1.2-4-3-5L70 1c-2.5-1.3-5.5-1.3-8 0C62 1 4.5 34.4 2 36s-2 5-2 5v72c0 3.3 2 4 2 4l60 36c2.5 1.3 5.5 1.3 8 0 0 0 59.7-34.4 62-36 1.4-.9 2.1-2.4 2-4 0 0 .1-70 0-72zm-41 4.3v63.6c0 3.3-2.7 6.1-6.1 6.1H46.1c-3.3 0-6.1-2.7-6.1-6.1V45.3c0-3.3 2.7-6.1 6.1-6.1H87c3.3.1 6 2.8 6 6.1z"/></g></svg>