<svg xmlns="http://www.w3.org/2000/svg" viewBox="0 0 134.1 154"><g fill="#E67624"><path d="M134 41c0-2.1-1.2-4-3-5L70 1c-2.5-1.3-5.5-1.3-8 0C62 1 4.5 34.4 2 36s-2 5-2 5v72c0 3.3 2 4 2 4l60 36c2.5 1.3 5.5 1.3 8 0 0 0 59.7-34.4 62-36 1.4-.9 2.1-2.4 2-4 0 0 .1-70 0-72zm-36.6 67.4l-2.1 2.1c-2.1 2.1-5.5 2.1-7.7 0L74.4 97.2c-14.5 9.1-33.6 4.6-42.6-9.8s-4.6-33.6 9.8-42.6c14.5-9.1 33.6-4.6 42.6 9.8 6.3 10.1 6.3 22.8-.1 32.9l13.2 13.2c2.3 2.1 2.3 5.5.1 7.7z"/><path d="M58 48.6c-12.4 0-22.4 10-22.4 22.4 0 12.4 10 22.4 22.4 22.4 12.4 0 22.4-10 22.4-22.4 0-12.4-10-22.4-22.4-22.4z"/></g></svg>